<?xml version="1.0" encoding="UTF-8"?>
<svg width="1440px" height="413px" viewBox="0 0 1440 413" version="1.1" xmlns="http://www.w3.org/2000/svg" xmlns:xlink="http://www.w3.org/1999/xlink">
    <title>homepage cloud</title>
    <g id="Homepage" stroke="none" stroke-width="1" fill="none" fill-rule="evenodd">
        <g id="Synnfo---HomePage" transform="translate(0.000000, -933.000000)" fill="#FFF5F1">
            <g id="Group-23" transform="translate(-127.000000, 756.000000)">
                <path d="M801,590 L0,587.770221 L0,79 C57.7468818,127.482563 111.902463,171.765568 162.466744,211.849015 C173.046537,216.727919 182.492379,223.710892 190.285097,232.269077 C201.364402,228.221797 213.429794,226 226.052257,226 C263.113274,226 295.371917,245.153622 312.043033,273.414145 C327.171378,266.084369 343.993495,262 361.714964,262 C412.901712,262 456.585276,296.075372 473.7038,344.006943 C484.218595,339.507044 495.91198,337 508.230404,337 C535.672919,337 560.013414,349.442265 575.174775,368.633613 C596.648843,349.031964 625.715751,337 657.714964,337 C687.215919,337 714.224561,347.226571 735.091663,364.182426 C750.349075,318.064863 798.839728,282.376114 858.61006,278.292637 C897.243955,275.65341 933.092134,286.73103 959.470463,306.66856 C985.611268,266.863809 1034.54953,238.293419 1092.31931,234.346618 C1122.75292,232.267584 1151.73288,237.289012 1176.95913,247.750009 C1207.35686,213.561991 1259.62352,191 1319,191 C1345.40082,191 1370.39603,195.460497 1392.68861,203.420177 C1410.15962,188.777142 1432.16531,179.360189 1456.54421,177.694647 C1491.19213,175.3277 1523.32347,189.117087 1545.76942,212.726784 C1563.29531,187.91634 1593.4591,171.538853 1627.72922,171.538853 C1635.38858,171.538853 1642.84282,172.356943 1649.99674,173.904439 C1644.47147,162.253673 1641.41093,149.400455 1641.41093,135.894416 C1641.41093,82.9886161 1688.37317,40.0999915 1746.30404,40.0999915 C1747.3299,40.0999915 1748.35232,40.1134407 1749.3711,40.1401567 C1757.64078,16.8508425 1781.72721,-1.8189894e-12 1810.15202,-1.8189894e-12 C1845.41429,-1.8189894e-12 1874,25.9326567 1874,57.92221 C1874,77.8770185 1862.87685,95.4749934 1845.94849,105.89175 C1849.35454,115.328188 1851.19715,125.414785 1851.19715,135.894416 C1851.19715,160.175268 1841.30547,182.346197 1825.00153,199.229592 L1825,586.770221 L1267,588.323 L1267,589 L799.681472,589.001255 C800.126232,589.335138 800.565742,589.668053 801,590 Z M1246.05582,430.843971 C1236.2363,446.484265 1222.93086,460.465562 1206.96001,472.001253 L1267,472 L1266.99558,475.943559 C1287.00248,467.348795 1309.17837,456.217671 1333.52327,442.550188 C1328.73849,442.846761 1323.89339,443 1319,443 C1292.89266,443 1268.15986,438.63812 1246.05582,430.843971 Z M976.666803,459.113944 C972.714486,463.660604 968.38069,467.968397 963.702896,472.001189 L991.670422,472.001318 C986.331182,467.998933 981.316991,463.693766 976.666803,459.113944 Z" id="homepage-cloud"></path>
            </g>
        </g>
    </g>
</svg>