<?xml version="1.0" encoding="UTF-8"?>
<svg width="1385px" height="457px" viewBox="0 0 1385 457" version="1.1" xmlns="http://www.w3.org/2000/svg" xmlns:xlink="http://www.w3.org/1999/xlink">
    <title>homepage cloud - small</title>
    <g id="Homepage" stroke="none" stroke-width="1" fill="none" fill-rule="evenodd">
        <g id="Synnfo---HomePage" transform="translate(-55.000000, -834.000000)" fill="#FFC679" fill-rule="nonzero">
            <g id="Group-23" transform="translate(-127.000000, 756.000000)">
                <path d="M1468.38626,100.694499 C1536.77148,64.333434 1612.33892,72.7164989 1637.17087,119.418599 C1662.00282,166.120698 1626.69591,233.456697 1558.3107,269.817762 C1548.76244,274.894663 1539.07416,279.099275 1529.40351,282.449087 C1529.56744,284.330322 1529.64846,286.226417 1529.64846,288.135392 C1529.64846,341.707013 1465.84903,385.135392 1387.14846,385.135392 C1360.53961,385.135392 1335.63417,380.170957 1314.32201,371.528543 C1290.0323,405.08485 1252.9413,426.529691 1211.38124,426.529691 C1157.09328,426.529691 1110.43086,389.938427 1089.95782,337.561425 C1067.79335,368.346946 1021.45481,389.529691 967.881235,389.529691 C946.045988,389.529691 925.412607,386.01087 907.127624,379.757254 C906.996756,465.278672 838.646541,534.565321 754.351544,534.565321 C679.796206,534.565321 617.713912,480.364802 604.270442,408.669331 C581.423341,435.250473 544.800881,452.475059 503.52019,452.475059 C466.484837,452.475059 433.19887,438.611082 410.240915,416.564668 C386.014757,438.891211 353.963577,452.475059 318.817102,452.475059 C243.255103,452.475059 182,389.688579 182,312.23753 C182,234.786481 243.255103,172 318.817102,172 C372.578537,172 419.09761,203.783445 441.465191,250.018477 C459.761247,240.999702 480.944101,235.847981 503.52019,235.847981 C556.729312,235.847981 602.199176,264.465176 620.420376,304.850531 C646.40422,256.921933 696.641139,224.446556 754.351544,224.446556 C788.693571,224.446556 820.389129,235.946555 845.903625,255.359206 C868.106386,224.649743 914.386994,203.529691 967.881235,203.529691 C1015.69443,203.529691 1057.74481,220.402078 1081.99433,245.91497 C1095.08366,179.339054 1148.04237,129.529691 1211.38124,129.529691 C1259.37154,129.529691 1301.40289,158.123863 1324.65144,200.939822 C1343.51708,194.659935 1364.7281,191.135392 1387.14846,191.135392 L1385.97382,191.141525 C1396.65587,157.281427 1426.23848,123.104874 1468.38626,100.694499 Z" id="homepage-cloud---small"></path>
            </g>
        </g>
    </g>
</svg>