<svg xmlns="http://www.w3.org/2000/svg" xmlns:xlink="http://www.w3.org/1999/xlink" width="56" height="42" viewBox="0 0 56 42">
    <defs>
        <linearGradient id="ffu7msea4b" x1="11.024%" x2="92.12%" y1="38.525%" y2="72.972%">
            <stop offset="0%" stop-color="#FD9714"/>
            <stop offset="100%" stop-color="#FD5714"/>
        </linearGradient>
        <path id="b5rd0lr92a" d="M13.504 11.906C5.972 12.527.05 18.833.05 26.526c0 7.392 5.468 13.505 12.578 14.522v.152h21.026c2.255-1.065 3.83-3.44 3.83-6.195 0-3.56-2.76-6.485-6.223-6.678h-2.012v-3.438h1.596v-.01h.05c.151 0 .301.003.45.01h.3v.018c5.155.39 9.233 4.77 9.233 10.098 0 2.27-.736 4.428-2.088 6.195h3.785v-.06c7.496-.658 13.376-6.947 13.376-14.614 0-7.014-4.922-12.874-11.5-14.324H25.266c-3.537 0-6.414 2.854-6.414 6.363 0 3.387 2.687 6.17 6.058 6.354h1.965v3.294l-1.61.01c-.146 0-.292-.003-.437-.01h-.297v-.017c-5.023-.374-8.996-4.551-8.996-9.631 0-5.113 4.024-9.31 9.093-9.637v-.02h16.736C39.106 3.708 33.929.072 27.9.072c-7.132 0-13.074 5.09-14.397 11.833"/>
    </defs>
    <g fill="none" fill-rule="evenodd">
        <g>
            <g transform="translate(-86 -132) translate(86 132)">
                <mask id="0r64jo9luc" fill="#fff">
                    <use xlink:href="#b5rd0lr92a"/>
                </mask>
                <path fill="url(#ffu7msea4b)" d="M13.504 11.906C5.972 12.527.05 18.833.05 26.526c0 7.392 5.468 13.505 12.578 14.522v.152h21.026c2.255-1.065 3.83-3.44 3.83-6.195 0-3.56-2.76-6.485-6.223-6.678h-2.012v-3.438h1.596v-.01h.05c.151 0 .301.003.45.01h.3v.018c5.155.39 9.233 4.77 9.233 10.098 0 2.27-.736 4.428-2.088 6.195h3.785v-.06c7.496-.658 13.376-6.947 13.376-14.614 0-7.014-4.922-12.874-11.5-14.324H25.266c-3.537 0-6.414 2.854-6.414 6.363 0 3.387 2.687 6.17 6.058 6.354h1.965v3.294l-1.61.01c-.146 0-.292-.003-.437-.01h-.297v-.017c-5.023-.374-8.996-4.551-8.996-9.631 0-5.113 4.024-9.31 9.093-9.637v-.02h16.736C39.106 3.708 33.929.072 27.9.072c-7.132 0-13.074 5.09-14.397 11.833" mask="url(#0r64jo9luc)"/>
            </g>
        </g>
    </g>
</svg>
